<?xml version="1.0" standalone="no"?><!DOCTYPE svg PUBLIC "-//W3C//DTD SVG 1.1//EN"
        "http://www.w3.org/Graphics/SVG/1.1/DTD/svg11.dtd">
<svg class="icon" width="200px" height="200.00px" viewBox="0 0 1024 1024" version="1.1"
     xmlns="http://www.w3.org/2000/svg">
    <path d="M835.296 313.232c95.296-24.128 122.928-101.36 141.696-141.616L613.472 2.16C597.072 37.328 552.528 111.68 596.16 201.92l-20.544 43.952a235.312 235.312 0 0 0-131.632 58c-42.432 37.6-56.096 73.296-75.568 115.04l128.672 60 33.808-72.512-51.84-24.176c50.816-63.2 118.592-57.744 148.16-57.744l59.28-127.136c-13.504-21.168-32.336-45.44-28.448-86.08l206.4 96.24c-28.224 28.672-61.072 30.512-84.24 33.552l-28.736 61.616-0.192 0.416 0.192-0.4a116.912 116.912 0 0 1-0.416 0.864l-30.128 64.624 14.128 16.832c14.176 16.896 24.608 33.616 32 56.112 8.208 24.944 10.08 51.392 4.88 77.664a32.32 32.32 0 0 1-0.4-0.192L588.896 433.44l-33.808 72.512 0.336 0.288C516.448 589.856 492.352 640 448.288 736h88.256l91.856-195.952L736 589.856V880H192V304h165.824c20.864-32 51.328-64 86.928-80H112v736h704V626.88l16.8-36.016c35.808-76.8 31.2-163.568-16.8-232.528v-2.72l19.296-42.384z"
          fill="#565D64"/>
</svg>